<?xml version="1.0" encoding="iso-8859-1"?>
<!-- Generator: Adobe Illustrator 19.0.0, SVG Export Plug-In . SVG Version: 6.00 Build 0)  -->
<svg version="1.1" id="Capa_1" xmlns="http://www.w3.org/2000/svg" xmlns:xlink="http://www.w3.org/1999/xlink" x="0px" y="0px"
	 viewBox="0 0 512.001 512.001" style="enable-background:new 0 0 512.001 512.001;" xml:space="preserve">
<path style="fill:#F7C400;" d="M419.296,388.016v29.914c22.697,6.166,38.048,30.177,30.045,56.023
	c-4.068,12.989-14.563,23.616-27.683,27.683c-29.914,9.315-57.597-12.989-57.597-41.591h5.117c10.102,0,19.024,5.117,26.24,12.333
	c3.149,3.149,7.61,5.117,12.333,5.117c9.709,0,17.581-7.872,17.581-17.45c0-9.709-7.872-17.581-17.581-17.581h-11.414v-54.448"/>
<rect x="397.403" y="168.21" style="fill:#919A9B;" width="22.954" height="180.65"/>
<rect x="385.805" y="123.965" style="fill:#425965;" width="46.147" height="63.417"/>
<g>
	<path style="fill:#F49C00;" d="M504.396,40.328V7.855H7.604v32.473h44.742v68.433H7.604v32.473h496.792V108.76h-49.061V40.328
		H504.396z M85.802,108.76V40.328h58.928v68.433H85.802z M178.185,108.76V40.328h58.928v68.433H178.185z M270.569,108.76V40.328
		h58.928v68.433H270.569z M421.88,108.76h-58.928V40.328h58.928V108.76z"/>
	<path style="fill:#F49C00;" d="M66.793,324.702h68.433v58.928H66.793V324.702z M66.793,417.085h68.433v58.928H66.793V417.085z
		 M66.796,108.76H34.322v395.386h32.474l0,0h68.426l0,0h32.474V324.702"/>
</g>
<rect x="34.322" y="141.231" style="fill:#D38405;" width="71.244" height="71.244"/>
<path style="fill:#F7C400;" d="M233.119,141.29v136.226c0,26.143-21.156,47.128-47.301,47.128H66.793V141.29H233.119z"/>
<rect x="66.793" y="141.292" style="fill:#D6A403;" width="166.324" height="51.6"/>
<rect x="135.594" y="181.37" style="fill:#A0D9F2;" width="68.801" height="68.801"/>
<path style="fill:#425965;" d="M419.296,388.016h-21.89c-11.379,0-20.602-9.224-20.602-20.602v-14.318
	c0-11.379,9.224-20.602,20.602-20.602h21.89c11.379,0,20.602,9.224,20.602,20.602v14.318
	C439.897,378.792,430.674,388.016,419.296,388.016z"/>
<path style="fill:#2F4149;" d="M403.281,367.414v-14.318c0-10.602,8.011-19.325,18.308-20.467c-0.754-0.084-1.518-0.135-2.293-0.135
	h-21.89c-11.379,0-20.602,9.224-20.602,20.602v14.318c0,11.379,9.224,20.603,20.602,20.603h21.89c0.777,0,1.54-0.052,2.293-0.135
	C411.292,386.739,403.281,378.016,403.281,367.414z"/>
<path d="M135.594,257.772h68.801c4.199,0,7.604-3.405,7.604-7.604v-68.801c0-4.199-3.405-7.604-7.604-7.604h-68.801
	c-4.199,0-7.604,3.405-7.604,7.604v68.801C127.99,254.367,131.394,257.772,135.594,257.772z M143.198,188.971h53.593v53.593h-53.593
	V188.971z"/>
<path d="M504.396,47.932c4.199,0,7.604-3.405,7.604-7.604s-3.405-7.604-7.604-7.604h-49.061c-4.199,0-7.604,3.405-7.604,7.604
	v68.433c0,4.199,3.405,7.604,7.604,7.604h49.061c4.199,0,7.604-3.405,7.604-7.604c0-4.199-3.405-7.604-7.604-7.604h-41.457V47.932
	H504.396z"/>
<path d="M362.952,32.724c-4.199,0-7.604,3.405-7.604,7.604v68.433c0,4.199,3.405,7.604,7.604,7.604h58.928
	c4.199,0,7.604-3.405,7.604-7.604V40.328c0-4.199-3.405-7.604-7.604-7.604H362.952z M414.276,88.276l-34.741-40.345h34.741V88.276z
	 M370.556,60.811l34.741,40.345h-34.741V60.811z"/>
<path d="M7.604,15.459h496.792c4.199,0,7.604-3.405,7.604-7.604s-3.405-7.604-7.604-7.604H7.604C3.405,0.251,0,3.655,0,7.855
	S3.405,15.459,7.604,15.459z"/>
<path d="M504.396,133.629h-72.44h-46.147h-51.736c-4.199,0-7.604,3.405-7.604,7.604c0,4.199,3.405,7.604,7.604,7.604h44.132v38.543
	c0,4.199,3.405,7.604,7.604,7.604h3.993v130.956c-11.869,3.328-20.602,14.238-20.602,27.156v14.318
	c0,12.527,8.211,23.168,19.533,26.836v48.215c0,4.199,3.405,7.604,7.604,7.604h11.414c5.501,0,9.976,4.476,9.976,9.976
	c0,5.428-4.476,9.846-9.976,9.846c-2.584,0-5.12-1.053-6.956-2.889c-9.525-9.525-20.458-14.56-31.617-14.56h-5.117
	c-4.199,0-7.604,3.405-7.604,7.604c0,16.232,7.843,31.694,20.981,41.364c8.937,6.577,19.5,9.97,30.376,9.97
	c5.341,0,10.759-0.819,16.095-2.481c15.341-4.756,27.867-17.276,32.696-32.697c4.321-13.957,2.963-28.446-3.826-40.796
	c-5.72-10.406-14.963-18.535-25.878-22.928v-17.907c11.869-3.328,20.602-14.238,20.602-27.156v-14.318
	c0-12.529-8.214-23.171-19.538-26.838V194.984h3.993c4.199,0,7.604-3.405,7.604-7.604v-38.543h64.836
	c4.199,0,7.604-3.405,7.604-7.604C512.001,137.034,508.595,133.629,504.396,133.629z M439.45,442.731
	c4.784,8.702,5.717,18.991,2.634,28.949c-3.351,10.699-12.041,19.394-22.688,22.695c-11.549,3.594-23.556,1.695-32.945-5.216
	c-7.099-5.224-12.005-12.843-13.907-21.258c5.978,0.901,11.848,4.203,17.496,9.853c4.668,4.668,11.122,7.344,17.71,7.344
	c13.887,0,25.184-11.239,25.184-25.054c0-13.887-11.298-25.184-25.184-25.184h-3.81V395.62h7.752v22.31
	c0,3.432,2.298,6.438,5.611,7.338C426.676,427.815,434.75,434.18,439.45,442.731z M432.293,353.097v14.318
	c0,7.167-5.831,12.998-12.998,12.998h-21.89c-7.167,0-12.998-5.831-12.998-12.998v-14.318c0-7.167,5.831-12.998,12.998-12.998h21.89
	C426.463,340.098,432.293,345.929,432.293,353.097z M412.755,324.89h-7.747V194.984h7.747V324.89z M424.352,179.776h-3.993h-22.955
	h-3.993v-30.939h30.939L424.352,179.776L424.352,179.776z"/>
<path d="M7.604,101.156c-4.199,0-7.604,3.405-7.604,7.604c0,4.199,3.405,7.604,7.604,7.604h44.742c4.199,0,7.604-3.405,7.604-7.604
	V40.328c0-4.199-3.405-7.604-7.604-7.604H7.604C3.405,32.724,0,36.128,0,40.328s3.405,7.604,7.604,7.604h37.138v53.225H7.604z"/>
<path d="M270.569,32.724c-4.199,0-7.604,3.405-7.604,7.604v68.433c0,4.199,3.405,7.604,7.604,7.604h58.928
	c4.199,0,7.604-3.405,7.604-7.604V40.328c0-4.199-3.405-7.604-7.604-7.604H270.569z M321.893,88.276l-34.741-40.345h34.741V88.276z
	 M278.173,60.811l34.741,40.345h-34.741V60.811z"/>
<path d="M303.655,133.629h-70.593H66.796h-0.003h-32.47H7.604c-4.199,0-7.604,3.405-7.604,7.604c0,4.199,3.405,7.604,7.604,7.604
	h19.115v225.044c0,4.199,3.405,7.604,7.604,7.604s7.604-3.405,7.604-7.604V148.837h17.262v175.864v58.928
	c0,4.199,3.405,7.604,7.604,7.604h68.433c4.199,0,7.604-3.405,7.604-7.604v-51.324h17.262v171.84c0,4.199,3.405,7.604,7.604,7.604
	c4.199,0,7.604-3.405,7.604-7.604v-171.84h10.59c30.204,0,54.776-24.572,54.776-54.776V148.837h62.989
	c4.199,0,7.604-3.405,7.604-7.604C311.259,137.034,307.855,133.629,303.655,133.629z M74.397,332.306h40.345l-40.345,34.741V332.306
	z M87.277,376.025l40.345-34.741v34.741H87.277z M225.457,277.53c0,21.818-17.75,39.568-39.568,39.568h-18.185
	c-0.003,0-0.006,0-0.01,0c-0.004,0-0.006,0-0.01,0h-32.461H74.397V198.92c0-0.02,0.003-0.04,0.003-0.059v-50.024h151.057V277.53z"/>
<path d="M85.802,32.724c-4.199,0-7.604,3.405-7.604,7.604v68.433c0,4.199,3.405,7.604,7.604,7.604h58.928
	c4.199,0,7.604-3.405,7.604-7.604V40.328c0-4.199-3.405-7.604-7.604-7.604H85.802z M137.126,88.276l-34.741-40.345h34.741V88.276z
	 M93.406,60.811l34.741,40.345H93.406V60.811z"/>
<path d="M178.185,32.724c-4.199,0-7.604,3.405-7.604,7.604v68.433c0,4.199,3.405,7.604,7.604,7.604h58.928
	c4.199,0,7.604-3.405,7.604-7.604V40.328c0-4.199-3.405-7.604-7.604-7.604H178.185z M229.509,88.276l-34.741-40.345h34.741V88.276z
	 M185.789,60.811l34.742,40.345h-34.742V60.811z"/>
<path d="M34.323,396.695c-4.199,0-7.604,3.405-7.604,7.604v99.847c0,4.199,3.405,7.604,7.604,7.604s7.604-3.405,7.604-7.604v-99.847
	C41.927,400.1,38.523,396.695,34.323,396.695z"/>
<path d="M135.226,409.481H66.793c-4.199,0-7.604,3.405-7.604,7.604v58.929c0,4.199,3.405,7.604,7.604,7.604h68.433
	c4.199,0,7.604-3.405,7.604-7.604v-58.929C142.83,412.885,139.425,409.481,135.226,409.481z M114.743,424.689l-40.346,34.742
	v-34.742H114.743z M87.277,468.41l40.345-34.742v34.742H87.277z"/>
<g>
</g>
<g>
</g>
<g>
</g>
<g>
</g>
<g>
</g>
<g>
</g>
<g>
</g>
<g>
</g>
<g>
</g>
<g>
</g>
<g>
</g>
<g>
</g>
<g>
</g>
<g>
</g>
<g>
</g>
</svg>
